<svg width="77" height="84" viewBox="0 0 77 84" fill="none" xmlns="http://www.w3.org/2000/svg">
<g clip-path="url(#clip0_760_16)">
<path d="M38.5 84C59.763 84 77 67.0285 77 46.093C77 25.1575 59.763 8.186 38.5 8.186C17.237 8.186 0 25.1575 0 46.093C0 67.0285 17.237 84 38.5 84Z" fill="url(#paint0_linear_760_16)"/>
<path d="M61.908 3.07606L36.3267 46.7017C34.6023 49.6425 35.6252 53.4027 38.6116 55.1003C41.5979 56.7979 45.4167 55.7901 47.1412 52.8493L72.7225 9.22363C74.4469 6.28284 73.4239 2.52268 70.4376 0.825076C67.4513 -0.872527 63.6324 0.135276 61.908 3.07606Z" fill="url(#paint1_linear_760_16)"/>
<path d="M50.845 66.5514L50.7218 47.3572L41.4337 62.7607H35.0773L25.7892 48.0187V66.5514H12.6492V24.433H24.5052L38.4384 46.8758L52.0058 24.433H63.8619L63.9832 66.5514H50.845Z" fill="#BBBBBB"/>
<path d="M37.7684 44.2413L55.8788 13.3584C56.2884 12.6591 56.8339 12.046 57.4842 11.5543C58.1345 11.0626 58.8769 10.7019 59.6688 10.4928C60.4608 10.2836 61.2868 10.2302 62.0998 10.3356C62.9127 10.441 63.6966 10.703 64.4066 11.1068C65.1167 11.5102 65.7392 12.0474 66.2384 12.6877C66.7377 13.328 67.1039 14.0589 67.3163 14.8386C67.5287 15.6183 67.583 16.4315 67.4761 17.2319C67.3692 18.0322 67.1033 18.804 66.6935 19.5032L48.5831 50.3879C47.7552 51.8001 46.3914 52.8307 44.7918 53.2529C43.1922 53.6752 41.4878 53.4546 40.0534 52.6396C38.6198 51.8237 37.5738 50.4809 37.1454 48.9061C36.7169 47.3313 36.941 45.6534 37.7684 44.2413Z" fill="url(#paint2_linear_760_16)"/>
</g>
<defs>
<linearGradient id="paint0_linear_760_16" x1="2.94536" y1="46.093" x2="77" y2="46.093" gradientUnits="userSpaceOnUse">
<stop stop-color="#D441B9"/>
<stop offset="0.779559" stop-color="#854AEA"/>
<stop offset="0.9999" stop-color="#854AEA"/>
<stop offset="1" stop-color="#854AEA"/>
</linearGradient>
<linearGradient id="paint1_linear_760_16" x1="58.847" y1="21.4269" x2="70.0115" y2="1.78683" gradientUnits="userSpaceOnUse">
<stop stop-color="#BBBBBB"/>
<stop offset="0.85" stop-color="#854AEA"/>
</linearGradient>
<linearGradient id="paint2_linear_760_16" x1="40.4138" y1="53.0471" x2="64.019" y2="11.5201" gradientUnits="userSpaceOnUse">
<stop offset="0.08" stop-color="#BBBBBB"/>
<stop offset="0.68" stop-color="#854AEA"/>
<stop offset="1" stop-color="#2C3159"/>
</linearGradient>
<clipPath id="clip0_760_16">
<rect width="77" height="84" fill="white"/>
</clipPath>
</defs>
</svg>
